<mxfile host="app.diagrams.net" modified="2020-12-16T12:33:46.763Z" agent="5.0 (Windows NT 10.0; Win64; x64) AppleWebKit/537.36 (KHTML, like Gecko) Chrome/87.0.4280.88 Safari/537.36" etag="fd6fQn5uVqLYaTgotbdv" version="13.10.6" type="github">
  <diagram id="GVzHAWF-vlLXrNo-lUBa" name="Page-1">
    <mxGraphModel dx="1543" dy="1846" grid="0" gridSize="10" guides="1" tooltips="1" connect="1" arrows="1" fold="1" page="1" pageScale="1" pageWidth="850" pageHeight="1100" math="0" shadow="0">
      <root>
        <mxCell id="0" />
        <mxCell id="1" parent="0" />
        <object label="Customer" email="varchar" password="varchar" id="OawPCZ3OEu9Kcf-NtxFm-2">
          <mxCell style="shape=table;startSize=30;container=1;collapsible=1;childLayout=tableLayout;fixedRows=1;rowLines=0;fontStyle=1;align=center;resizeLast=1;" vertex="1" parent="1">
            <mxGeometry x="40" y="-1080" width="200" height="250" as="geometry" />
          </mxCell>
        </object>
        <mxCell id="OawPCZ3OEu9Kcf-NtxFm-3" value="" style="shape=partialRectangle;collapsible=0;dropTarget=0;pointerEvents=0;fillColor=none;top=0;left=0;bottom=1;right=0;points=[[0,0.5],[1,0.5]];portConstraint=eastwest;" vertex="1" parent="OawPCZ3OEu9Kcf-NtxFm-2">
          <mxGeometry y="30" width="200" height="30" as="geometry" />
        </mxCell>
        <mxCell id="OawPCZ3OEu9Kcf-NtxFm-4" value="PK" style="shape=partialRectangle;connectable=0;fillColor=none;top=0;left=0;bottom=0;right=0;fontStyle=1;overflow=hidden;" vertex="1" parent="OawPCZ3OEu9Kcf-NtxFm-3">
          <mxGeometry width="30" height="30" as="geometry" />
        </mxCell>
        <mxCell id="OawPCZ3OEu9Kcf-NtxFm-5" value="id (int)" style="shape=partialRectangle;connectable=0;fillColor=none;top=0;left=0;bottom=0;right=0;align=left;spacingLeft=6;fontStyle=5;overflow=hidden;" vertex="1" parent="OawPCZ3OEu9Kcf-NtxFm-3">
          <mxGeometry x="30" width="170" height="30" as="geometry" />
        </mxCell>
        <mxCell id="OawPCZ3OEu9Kcf-NtxFm-6" value="" style="shape=partialRectangle;collapsible=0;dropTarget=0;pointerEvents=0;fillColor=none;top=0;left=0;bottom=0;right=0;points=[[0,0.5],[1,0.5]];portConstraint=eastwest;" vertex="1" parent="OawPCZ3OEu9Kcf-NtxFm-2">
          <mxGeometry y="60" width="200" height="30" as="geometry" />
        </mxCell>
        <mxCell id="OawPCZ3OEu9Kcf-NtxFm-7" value="" style="shape=partialRectangle;connectable=0;fillColor=none;top=0;left=0;bottom=0;right=0;editable=1;overflow=hidden;" vertex="1" parent="OawPCZ3OEu9Kcf-NtxFm-6">
          <mxGeometry width="30" height="30" as="geometry" />
        </mxCell>
        <mxCell id="OawPCZ3OEu9Kcf-NtxFm-8" value="customer_name (varchar)" style="shape=partialRectangle;connectable=0;fillColor=none;top=0;left=0;bottom=0;right=0;align=left;spacingLeft=6;overflow=hidden;" vertex="1" parent="OawPCZ3OEu9Kcf-NtxFm-6">
          <mxGeometry x="30" width="170" height="30" as="geometry" />
        </mxCell>
        <mxCell id="OawPCZ3OEu9Kcf-NtxFm-9" value="" style="shape=partialRectangle;collapsible=0;dropTarget=0;pointerEvents=0;fillColor=none;top=0;left=0;bottom=0;right=0;points=[[0,0.5],[1,0.5]];portConstraint=eastwest;" vertex="1" parent="OawPCZ3OEu9Kcf-NtxFm-2">
          <mxGeometry y="90" width="200" height="30" as="geometry" />
        </mxCell>
        <mxCell id="OawPCZ3OEu9Kcf-NtxFm-10" value="" style="shape=partialRectangle;connectable=0;fillColor=none;top=0;left=0;bottom=0;right=0;editable=1;overflow=hidden;" vertex="1" parent="OawPCZ3OEu9Kcf-NtxFm-9">
          <mxGeometry width="30" height="30" as="geometry" />
        </mxCell>
        <mxCell id="OawPCZ3OEu9Kcf-NtxFm-11" value="address (varchar)" style="shape=partialRectangle;connectable=0;fillColor=none;top=0;left=0;bottom=0;right=0;align=left;spacingLeft=6;overflow=hidden;" vertex="1" parent="OawPCZ3OEu9Kcf-NtxFm-9">
          <mxGeometry x="30" width="170" height="30" as="geometry" />
        </mxCell>
        <mxCell id="OawPCZ3OEu9Kcf-NtxFm-12" value="" style="shape=partialRectangle;collapsible=0;dropTarget=0;pointerEvents=0;fillColor=none;top=0;left=0;bottom=0;right=0;points=[[0,0.5],[1,0.5]];portConstraint=eastwest;" vertex="1" parent="OawPCZ3OEu9Kcf-NtxFm-2">
          <mxGeometry y="120" width="200" height="30" as="geometry" />
        </mxCell>
        <mxCell id="OawPCZ3OEu9Kcf-NtxFm-13" value="" style="shape=partialRectangle;connectable=0;fillColor=none;top=0;left=0;bottom=0;right=0;editable=1;overflow=hidden;" vertex="1" parent="OawPCZ3OEu9Kcf-NtxFm-12">
          <mxGeometry width="30" height="30" as="geometry" />
        </mxCell>
        <mxCell id="OawPCZ3OEu9Kcf-NtxFm-14" value="contact (varchar)" style="shape=partialRectangle;connectable=0;fillColor=none;top=0;left=0;bottom=0;right=0;align=left;spacingLeft=6;overflow=hidden;" vertex="1" parent="OawPCZ3OEu9Kcf-NtxFm-12">
          <mxGeometry x="30" width="170" height="30" as="geometry" />
        </mxCell>
        <mxCell id="OawPCZ3OEu9Kcf-NtxFm-15" value="email (varchar)" style="shape=partialRectangle;connectable=0;fillColor=none;top=0;left=0;bottom=0;right=0;align=left;spacingLeft=6;overflow=hidden;" vertex="1" parent="1">
          <mxGeometry x="70" y="-930" width="170" height="30" as="geometry" />
        </mxCell>
        <mxCell id="OawPCZ3OEu9Kcf-NtxFm-16" value="password (varchar)" style="shape=partialRectangle;connectable=0;fillColor=none;top=0;left=0;bottom=0;right=0;align=left;spacingLeft=6;overflow=hidden;" vertex="1" parent="1">
          <mxGeometry x="70" y="-900" width="170" height="30" as="geometry" />
        </mxCell>
        <object label="Menu" email="varchar" password="varchar" id="OawPCZ3OEu9Kcf-NtxFm-17">
          <mxCell style="shape=table;startSize=30;container=1;collapsible=1;childLayout=tableLayout;fixedRows=1;rowLines=0;fontStyle=1;align=center;resizeLast=1;" vertex="1" parent="1">
            <mxGeometry x="320" y="-640" width="200" height="220" as="geometry" />
          </mxCell>
        </object>
        <mxCell id="OawPCZ3OEu9Kcf-NtxFm-18" value="" style="shape=partialRectangle;collapsible=0;dropTarget=0;pointerEvents=0;fillColor=none;top=0;left=0;bottom=1;right=0;points=[[0,0.5],[1,0.5]];portConstraint=eastwest;" vertex="1" parent="OawPCZ3OEu9Kcf-NtxFm-17">
          <mxGeometry y="30" width="200" height="30" as="geometry" />
        </mxCell>
        <mxCell id="OawPCZ3OEu9Kcf-NtxFm-19" value="PK" style="shape=partialRectangle;connectable=0;fillColor=none;top=0;left=0;bottom=0;right=0;fontStyle=1;overflow=hidden;" vertex="1" parent="OawPCZ3OEu9Kcf-NtxFm-18">
          <mxGeometry width="30" height="30" as="geometry" />
        </mxCell>
        <mxCell id="OawPCZ3OEu9Kcf-NtxFm-20" value="id (int)" style="shape=partialRectangle;connectable=0;fillColor=none;top=0;left=0;bottom=0;right=0;align=left;spacingLeft=6;fontStyle=5;overflow=hidden;" vertex="1" parent="OawPCZ3OEu9Kcf-NtxFm-18">
          <mxGeometry x="30" width="170" height="30" as="geometry" />
        </mxCell>
        <mxCell id="OawPCZ3OEu9Kcf-NtxFm-21" value="" style="shape=partialRectangle;collapsible=0;dropTarget=0;pointerEvents=0;fillColor=none;top=0;left=0;bottom=0;right=0;points=[[0,0.5],[1,0.5]];portConstraint=eastwest;" vertex="1" parent="OawPCZ3OEu9Kcf-NtxFm-17">
          <mxGeometry y="60" width="200" height="30" as="geometry" />
        </mxCell>
        <mxCell id="OawPCZ3OEu9Kcf-NtxFm-22" value="" style="shape=partialRectangle;connectable=0;fillColor=none;top=0;left=0;bottom=0;right=0;editable=1;overflow=hidden;" vertex="1" parent="OawPCZ3OEu9Kcf-NtxFm-21">
          <mxGeometry width="30" height="30" as="geometry" />
        </mxCell>
        <mxCell id="OawPCZ3OEu9Kcf-NtxFm-23" value="item_name (varchar)" style="shape=partialRectangle;connectable=0;fillColor=none;top=0;left=0;bottom=0;right=0;align=left;spacingLeft=6;overflow=hidden;" vertex="1" parent="OawPCZ3OEu9Kcf-NtxFm-21">
          <mxGeometry x="30" width="170" height="30" as="geometry" />
        </mxCell>
        <mxCell id="OawPCZ3OEu9Kcf-NtxFm-24" value="" style="shape=partialRectangle;collapsible=0;dropTarget=0;pointerEvents=0;fillColor=none;top=0;left=0;bottom=0;right=0;points=[[0,0.5],[1,0.5]];portConstraint=eastwest;" vertex="1" parent="OawPCZ3OEu9Kcf-NtxFm-17">
          <mxGeometry y="90" width="200" height="30" as="geometry" />
        </mxCell>
        <mxCell id="OawPCZ3OEu9Kcf-NtxFm-25" value="" style="shape=partialRectangle;connectable=0;fillColor=none;top=0;left=0;bottom=0;right=0;editable=1;overflow=hidden;" vertex="1" parent="OawPCZ3OEu9Kcf-NtxFm-24">
          <mxGeometry width="30" height="30" as="geometry" />
        </mxCell>
        <mxCell id="OawPCZ3OEu9Kcf-NtxFm-26" value="category (varchar)" style="shape=partialRectangle;connectable=0;fillColor=none;top=0;left=0;bottom=0;right=0;align=left;spacingLeft=6;overflow=hidden;" vertex="1" parent="OawPCZ3OEu9Kcf-NtxFm-24">
          <mxGeometry x="30" width="170" height="30" as="geometry" />
        </mxCell>
        <mxCell id="OawPCZ3OEu9Kcf-NtxFm-27" value="" style="shape=partialRectangle;collapsible=0;dropTarget=0;pointerEvents=0;fillColor=none;top=0;left=0;bottom=0;right=0;points=[[0,0.5],[1,0.5]];portConstraint=eastwest;" vertex="1" parent="OawPCZ3OEu9Kcf-NtxFm-17">
          <mxGeometry y="120" width="200" height="30" as="geometry" />
        </mxCell>
        <mxCell id="OawPCZ3OEu9Kcf-NtxFm-28" value="" style="shape=partialRectangle;connectable=0;fillColor=none;top=0;left=0;bottom=0;right=0;editable=1;overflow=hidden;" vertex="1" parent="OawPCZ3OEu9Kcf-NtxFm-27">
          <mxGeometry width="30" height="30" as="geometry" />
        </mxCell>
        <mxCell id="OawPCZ3OEu9Kcf-NtxFm-29" value="price (varchar)" style="shape=partialRectangle;connectable=0;fillColor=none;top=0;left=0;bottom=0;right=0;align=left;spacingLeft=6;overflow=hidden;" vertex="1" parent="OawPCZ3OEu9Kcf-NtxFm-27">
          <mxGeometry x="30" width="170" height="30" as="geometry" />
        </mxCell>
        <mxCell id="OawPCZ3OEu9Kcf-NtxFm-30" value="quantity (int)" style="shape=partialRectangle;connectable=0;fillColor=none;top=0;left=0;bottom=0;right=0;align=left;spacingLeft=6;overflow=hidden;" vertex="1" parent="1">
          <mxGeometry x="350" y="-490" width="170" height="30" as="geometry" />
        </mxCell>
        <mxCell id="OawPCZ3OEu9Kcf-NtxFm-31" value="image (varchar)" style="shape=partialRectangle;connectable=0;fillColor=none;top=0;left=0;bottom=0;right=0;align=left;spacingLeft=6;overflow=hidden;" vertex="1" parent="1">
          <mxGeometry x="350" y="-460" width="170" height="30" as="geometry" />
        </mxCell>
        <mxCell id="OawPCZ3OEu9Kcf-NtxFm-32" value="image (varchar)" style="shape=partialRectangle;connectable=0;fillColor=none;top=0;left=0;bottom=0;right=0;align=left;spacingLeft=6;overflow=hidden;" vertex="1" parent="1">
          <mxGeometry x="70" y="-870" width="170" height="30" as="geometry" />
        </mxCell>
        <object label="Order" email="varchar" password="varchar" id="OawPCZ3OEu9Kcf-NtxFm-33">
          <mxCell style="shape=table;startSize=30;container=1;collapsible=1;childLayout=tableLayout;fixedRows=1;rowLines=0;fontStyle=1;align=center;resizeLast=1;" vertex="1" parent="1">
            <mxGeometry x="320" y="-990" width="200" height="190" as="geometry" />
          </mxCell>
        </object>
        <mxCell id="OawPCZ3OEu9Kcf-NtxFm-34" value="" style="shape=partialRectangle;collapsible=0;dropTarget=0;pointerEvents=0;fillColor=none;top=0;left=0;bottom=1;right=0;points=[[0,0.5],[1,0.5]];portConstraint=eastwest;" vertex="1" parent="OawPCZ3OEu9Kcf-NtxFm-33">
          <mxGeometry y="30" width="200" height="30" as="geometry" />
        </mxCell>
        <mxCell id="OawPCZ3OEu9Kcf-NtxFm-35" value="PK" style="shape=partialRectangle;connectable=0;fillColor=none;top=0;left=0;bottom=0;right=0;fontStyle=1;overflow=hidden;" vertex="1" parent="OawPCZ3OEu9Kcf-NtxFm-34">
          <mxGeometry width="30" height="30" as="geometry" />
        </mxCell>
        <mxCell id="OawPCZ3OEu9Kcf-NtxFm-36" value="id (int)" style="shape=partialRectangle;connectable=0;fillColor=none;top=0;left=0;bottom=0;right=0;align=left;spacingLeft=6;fontStyle=5;overflow=hidden;" vertex="1" parent="OawPCZ3OEu9Kcf-NtxFm-34">
          <mxGeometry x="30" width="170" height="30" as="geometry" />
        </mxCell>
        <mxCell id="OawPCZ3OEu9Kcf-NtxFm-37" value="" style="shape=partialRectangle;collapsible=0;dropTarget=0;pointerEvents=0;fillColor=none;top=0;left=0;bottom=0;right=0;points=[[0,0.5],[1,0.5]];portConstraint=eastwest;" vertex="1" parent="OawPCZ3OEu9Kcf-NtxFm-33">
          <mxGeometry y="60" width="200" height="30" as="geometry" />
        </mxCell>
        <mxCell id="OawPCZ3OEu9Kcf-NtxFm-38" value="" style="shape=partialRectangle;connectable=0;fillColor=none;top=0;left=0;bottom=0;right=0;editable=1;overflow=hidden;" vertex="1" parent="OawPCZ3OEu9Kcf-NtxFm-37">
          <mxGeometry width="30" height="30" as="geometry" />
        </mxCell>
        <mxCell id="OawPCZ3OEu9Kcf-NtxFm-39" value="customer_id (int)" style="shape=partialRectangle;connectable=0;fillColor=none;top=0;left=0;bottom=0;right=0;align=left;spacingLeft=6;overflow=hidden;" vertex="1" parent="OawPCZ3OEu9Kcf-NtxFm-37">
          <mxGeometry x="30" width="170" height="30" as="geometry" />
        </mxCell>
        <mxCell id="OawPCZ3OEu9Kcf-NtxFm-40" value="" style="shape=partialRectangle;collapsible=0;dropTarget=0;pointerEvents=0;fillColor=none;top=0;left=0;bottom=0;right=0;points=[[0,0.5],[1,0.5]];portConstraint=eastwest;" vertex="1" parent="OawPCZ3OEu9Kcf-NtxFm-33">
          <mxGeometry y="90" width="200" height="30" as="geometry" />
        </mxCell>
        <mxCell id="OawPCZ3OEu9Kcf-NtxFm-41" value="" style="shape=partialRectangle;connectable=0;fillColor=none;top=0;left=0;bottom=0;right=0;editable=1;overflow=hidden;" vertex="1" parent="OawPCZ3OEu9Kcf-NtxFm-40">
          <mxGeometry width="30" height="30" as="geometry" />
        </mxCell>
        <mxCell id="OawPCZ3OEu9Kcf-NtxFm-42" value="status_id (int)" style="shape=partialRectangle;connectable=0;fillColor=none;top=0;left=0;bottom=0;right=0;align=left;spacingLeft=6;overflow=hidden;" vertex="1" parent="OawPCZ3OEu9Kcf-NtxFm-40">
          <mxGeometry x="30" width="170" height="30" as="geometry" />
        </mxCell>
        <mxCell id="OawPCZ3OEu9Kcf-NtxFm-43" value="" style="shape=partialRectangle;collapsible=0;dropTarget=0;pointerEvents=0;fillColor=none;top=0;left=0;bottom=0;right=0;points=[[0,0.5],[1,0.5]];portConstraint=eastwest;" vertex="1" parent="OawPCZ3OEu9Kcf-NtxFm-33">
          <mxGeometry y="120" width="200" height="30" as="geometry" />
        </mxCell>
        <mxCell id="OawPCZ3OEu9Kcf-NtxFm-44" value="" style="shape=partialRectangle;connectable=0;fillColor=none;top=0;left=0;bottom=0;right=0;editable=1;overflow=hidden;" vertex="1" parent="OawPCZ3OEu9Kcf-NtxFm-43">
          <mxGeometry width="30" height="30" as="geometry" />
        </mxCell>
        <mxCell id="OawPCZ3OEu9Kcf-NtxFm-45" value="" style="shape=partialRectangle;connectable=0;fillColor=none;top=0;left=0;bottom=0;right=0;align=left;spacingLeft=6;overflow=hidden;" vertex="1" parent="OawPCZ3OEu9Kcf-NtxFm-43">
          <mxGeometry x="30" width="170" height="30" as="geometry" />
        </mxCell>
        <mxCell id="OawPCZ3OEu9Kcf-NtxFm-48" value="FK" style="shape=partialRectangle;connectable=0;fillColor=none;top=0;left=0;bottom=0;right=0;align=left;spacingLeft=6;overflow=hidden;" vertex="1" parent="1">
          <mxGeometry x="320" y="-930" width="30" height="30" as="geometry" />
        </mxCell>
        <mxCell id="OawPCZ3OEu9Kcf-NtxFm-49" value="FK" style="shape=partialRectangle;connectable=0;fillColor=none;top=0;left=0;bottom=0;right=0;align=left;spacingLeft=6;overflow=hidden;" vertex="1" parent="1">
          <mxGeometry x="320" y="-900" width="30" height="30" as="geometry" />
        </mxCell>
        <mxCell id="OawPCZ3OEu9Kcf-NtxFm-54" value="FK" style="shape=partialRectangle;connectable=0;fillColor=none;top=0;left=0;bottom=0;right=0;align=left;spacingLeft=6;overflow=hidden;" vertex="1" parent="1">
          <mxGeometry x="320" y="-870" width="30" height="30" as="geometry" />
        </mxCell>
        <mxCell id="OawPCZ3OEu9Kcf-NtxFm-55" value="recipe_id (int)" style="shape=partialRectangle;connectable=0;fillColor=none;top=0;left=0;bottom=0;right=0;align=left;spacingLeft=6;overflow=hidden;" vertex="1" parent="1">
          <mxGeometry x="350" y="-870" width="170" height="30" as="geometry" />
        </mxCell>
        <object label="Status" email="varchar" password="varchar" id="OawPCZ3OEu9Kcf-NtxFm-69">
          <mxCell style="shape=table;startSize=30;container=1;collapsible=1;childLayout=tableLayout;fixedRows=1;rowLines=0;fontStyle=1;align=center;resizeLast=1;" vertex="1" parent="1">
            <mxGeometry x="600" y="-1080" width="200" height="160" as="geometry" />
          </mxCell>
        </object>
        <mxCell id="OawPCZ3OEu9Kcf-NtxFm-70" value="" style="shape=partialRectangle;collapsible=0;dropTarget=0;pointerEvents=0;fillColor=none;top=0;left=0;bottom=1;right=0;points=[[0,0.5],[1,0.5]];portConstraint=eastwest;" vertex="1" parent="OawPCZ3OEu9Kcf-NtxFm-69">
          <mxGeometry y="30" width="200" height="30" as="geometry" />
        </mxCell>
        <mxCell id="OawPCZ3OEu9Kcf-NtxFm-71" value="PK" style="shape=partialRectangle;connectable=0;fillColor=none;top=0;left=0;bottom=0;right=0;fontStyle=1;overflow=hidden;" vertex="1" parent="OawPCZ3OEu9Kcf-NtxFm-70">
          <mxGeometry width="30" height="30" as="geometry" />
        </mxCell>
        <mxCell id="OawPCZ3OEu9Kcf-NtxFm-72" value="id (int)" style="shape=partialRectangle;connectable=0;fillColor=none;top=0;left=0;bottom=0;right=0;align=left;spacingLeft=6;fontStyle=5;overflow=hidden;" vertex="1" parent="OawPCZ3OEu9Kcf-NtxFm-70">
          <mxGeometry x="30" width="170" height="30" as="geometry" />
        </mxCell>
        <mxCell id="OawPCZ3OEu9Kcf-NtxFm-73" value="" style="shape=partialRectangle;collapsible=0;dropTarget=0;pointerEvents=0;fillColor=none;top=0;left=0;bottom=0;right=0;points=[[0,0.5],[1,0.5]];portConstraint=eastwest;" vertex="1" parent="OawPCZ3OEu9Kcf-NtxFm-69">
          <mxGeometry y="60" width="200" height="30" as="geometry" />
        </mxCell>
        <mxCell id="OawPCZ3OEu9Kcf-NtxFm-74" value="" style="shape=partialRectangle;connectable=0;fillColor=none;top=0;left=0;bottom=0;right=0;editable=1;overflow=hidden;" vertex="1" parent="OawPCZ3OEu9Kcf-NtxFm-73">
          <mxGeometry width="30" height="30" as="geometry" />
        </mxCell>
        <mxCell id="OawPCZ3OEu9Kcf-NtxFm-75" value="isPay (boolean)" style="shape=partialRectangle;connectable=0;fillColor=none;top=0;left=0;bottom=0;right=0;align=left;spacingLeft=6;overflow=hidden;" vertex="1" parent="OawPCZ3OEu9Kcf-NtxFm-73">
          <mxGeometry x="30" width="170" height="30" as="geometry" />
        </mxCell>
        <mxCell id="OawPCZ3OEu9Kcf-NtxFm-76" value="" style="shape=partialRectangle;collapsible=0;dropTarget=0;pointerEvents=0;fillColor=none;top=0;left=0;bottom=0;right=0;points=[[0,0.5],[1,0.5]];portConstraint=eastwest;" vertex="1" parent="OawPCZ3OEu9Kcf-NtxFm-69">
          <mxGeometry y="90" width="200" height="30" as="geometry" />
        </mxCell>
        <mxCell id="OawPCZ3OEu9Kcf-NtxFm-77" value="" style="shape=partialRectangle;connectable=0;fillColor=none;top=0;left=0;bottom=0;right=0;editable=1;overflow=hidden;" vertex="1" parent="OawPCZ3OEu9Kcf-NtxFm-76">
          <mxGeometry width="30" height="30" as="geometry" />
        </mxCell>
        <mxCell id="OawPCZ3OEu9Kcf-NtxFm-78" value="isReady (boolean)" style="shape=partialRectangle;connectable=0;fillColor=none;top=0;left=0;bottom=0;right=0;align=left;spacingLeft=6;overflow=hidden;" vertex="1" parent="OawPCZ3OEu9Kcf-NtxFm-76">
          <mxGeometry x="30" width="170" height="30" as="geometry" />
        </mxCell>
        <mxCell id="OawPCZ3OEu9Kcf-NtxFm-82" value="isDelivery (boolean)" style="shape=partialRectangle;connectable=0;fillColor=none;top=0;left=0;bottom=0;right=0;align=left;spacingLeft=6;overflow=hidden;" vertex="1" parent="1">
          <mxGeometry x="630" y="-960" width="170" height="30" as="geometry" />
        </mxCell>
        <object label="Recipt" email="varchar" password="varchar" id="OawPCZ3OEu9Kcf-NtxFm-83">
          <mxCell style="shape=table;startSize=30;container=1;collapsible=1;childLayout=tableLayout;fixedRows=1;rowLines=0;fontStyle=1;align=center;resizeLast=1;" vertex="1" parent="1">
            <mxGeometry x="600" y="-840" width="200" height="220" as="geometry" />
          </mxCell>
        </object>
        <mxCell id="OawPCZ3OEu9Kcf-NtxFm-84" value="" style="shape=partialRectangle;collapsible=0;dropTarget=0;pointerEvents=0;fillColor=none;top=0;left=0;bottom=1;right=0;points=[[0,0.5],[1,0.5]];portConstraint=eastwest;" vertex="1" parent="OawPCZ3OEu9Kcf-NtxFm-83">
          <mxGeometry y="30" width="200" height="30" as="geometry" />
        </mxCell>
        <mxCell id="OawPCZ3OEu9Kcf-NtxFm-85" value="PK" style="shape=partialRectangle;connectable=0;fillColor=none;top=0;left=0;bottom=0;right=0;fontStyle=1;overflow=hidden;" vertex="1" parent="OawPCZ3OEu9Kcf-NtxFm-84">
          <mxGeometry width="30" height="30" as="geometry" />
        </mxCell>
        <mxCell id="OawPCZ3OEu9Kcf-NtxFm-86" value="id (int)" style="shape=partialRectangle;connectable=0;fillColor=none;top=0;left=0;bottom=0;right=0;align=left;spacingLeft=6;fontStyle=5;overflow=hidden;" vertex="1" parent="OawPCZ3OEu9Kcf-NtxFm-84">
          <mxGeometry x="30" width="170" height="30" as="geometry" />
        </mxCell>
        <mxCell id="OawPCZ3OEu9Kcf-NtxFm-87" value="" style="shape=partialRectangle;collapsible=0;dropTarget=0;pointerEvents=0;fillColor=none;top=0;left=0;bottom=0;right=0;points=[[0,0.5],[1,0.5]];portConstraint=eastwest;" vertex="1" parent="OawPCZ3OEu9Kcf-NtxFm-83">
          <mxGeometry y="60" width="200" height="30" as="geometry" />
        </mxCell>
        <mxCell id="OawPCZ3OEu9Kcf-NtxFm-88" value="" style="shape=partialRectangle;connectable=0;fillColor=none;top=0;left=0;bottom=0;right=0;editable=1;overflow=hidden;" vertex="1" parent="OawPCZ3OEu9Kcf-NtxFm-87">
          <mxGeometry width="30" height="30" as="geometry" />
        </mxCell>
        <mxCell id="OawPCZ3OEu9Kcf-NtxFm-89" value="price (varchar)" style="shape=partialRectangle;connectable=0;fillColor=none;top=0;left=0;bottom=0;right=0;align=left;spacingLeft=6;overflow=hidden;" vertex="1" parent="OawPCZ3OEu9Kcf-NtxFm-87">
          <mxGeometry x="30" width="170" height="30" as="geometry" />
        </mxCell>
        <mxCell id="OawPCZ3OEu9Kcf-NtxFm-90" value="" style="shape=partialRectangle;collapsible=0;dropTarget=0;pointerEvents=0;fillColor=none;top=0;left=0;bottom=0;right=0;points=[[0,0.5],[1,0.5]];portConstraint=eastwest;" vertex="1" parent="OawPCZ3OEu9Kcf-NtxFm-83">
          <mxGeometry y="90" width="200" height="30" as="geometry" />
        </mxCell>
        <mxCell id="OawPCZ3OEu9Kcf-NtxFm-91" value="" style="shape=partialRectangle;connectable=0;fillColor=none;top=0;left=0;bottom=0;right=0;editable=1;overflow=hidden;" vertex="1" parent="OawPCZ3OEu9Kcf-NtxFm-90">
          <mxGeometry width="30" height="30" as="geometry" />
        </mxCell>
        <mxCell id="OawPCZ3OEu9Kcf-NtxFm-92" value="quantity (int)" style="shape=partialRectangle;connectable=0;fillColor=none;top=0;left=0;bottom=0;right=0;align=left;spacingLeft=6;overflow=hidden;" vertex="1" parent="OawPCZ3OEu9Kcf-NtxFm-90">
          <mxGeometry x="30" width="170" height="30" as="geometry" />
        </mxCell>
        <mxCell id="OawPCZ3OEu9Kcf-NtxFm-93" value="" style="shape=partialRectangle;collapsible=0;dropTarget=0;pointerEvents=0;fillColor=none;top=0;left=0;bottom=0;right=0;points=[[0,0.5],[1,0.5]];portConstraint=eastwest;" vertex="1" parent="OawPCZ3OEu9Kcf-NtxFm-83">
          <mxGeometry y="120" width="200" height="30" as="geometry" />
        </mxCell>
        <mxCell id="OawPCZ3OEu9Kcf-NtxFm-94" value="" style="shape=partialRectangle;connectable=0;fillColor=none;top=0;left=0;bottom=0;right=0;editable=1;overflow=hidden;" vertex="1" parent="OawPCZ3OEu9Kcf-NtxFm-93">
          <mxGeometry width="30" height="30" as="geometry" />
        </mxCell>
        <mxCell id="OawPCZ3OEu9Kcf-NtxFm-95" value="discount (decimal)" style="shape=partialRectangle;connectable=0;fillColor=none;top=0;left=0;bottom=0;right=0;align=left;spacingLeft=6;overflow=hidden;" vertex="1" parent="OawPCZ3OEu9Kcf-NtxFm-93">
          <mxGeometry x="30" width="170" height="30" as="geometry" />
        </mxCell>
        <mxCell id="OawPCZ3OEu9Kcf-NtxFm-96" value="total_price (varchar)" style="shape=partialRectangle;connectable=0;fillColor=none;top=0;left=0;bottom=0;right=0;align=left;spacingLeft=6;overflow=hidden;" vertex="1" parent="1">
          <mxGeometry x="630" y="-690" width="170" height="30" as="geometry" />
        </mxCell>
        <mxCell id="OawPCZ3OEu9Kcf-NtxFm-123" value="menu_id (int)" style="shape=partialRectangle;connectable=0;fillColor=none;top=0;left=0;bottom=0;right=0;align=left;spacingLeft=6;overflow=hidden;" vertex="1" parent="1">
          <mxGeometry x="630" y="-660" width="170" height="30" as="geometry" />
        </mxCell>
        <mxCell id="OawPCZ3OEu9Kcf-NtxFm-124" value="FK" style="shape=partialRectangle;connectable=0;fillColor=none;top=0;left=0;bottom=0;right=0;align=left;spacingLeft=6;overflow=hidden;" vertex="1" parent="1">
          <mxGeometry x="600" y="-660" width="30" height="30" as="geometry" />
        </mxCell>
        <object label="Admin" email="varchar" password="varchar" id="OawPCZ3OEu9Kcf-NtxFm-125">
          <mxCell style="shape=table;startSize=30;container=1;collapsible=1;childLayout=tableLayout;fixedRows=1;rowLines=0;fontStyle=1;align=center;resizeLast=1;" vertex="1" parent="1">
            <mxGeometry x="40" y="-760" width="200" height="200" as="geometry" />
          </mxCell>
        </object>
        <mxCell id="OawPCZ3OEu9Kcf-NtxFm-126" value="" style="shape=partialRectangle;collapsible=0;dropTarget=0;pointerEvents=0;fillColor=none;top=0;left=0;bottom=1;right=0;points=[[0,0.5],[1,0.5]];portConstraint=eastwest;" vertex="1" parent="OawPCZ3OEu9Kcf-NtxFm-125">
          <mxGeometry y="30" width="200" height="30" as="geometry" />
        </mxCell>
        <mxCell id="OawPCZ3OEu9Kcf-NtxFm-127" value="PK" style="shape=partialRectangle;connectable=0;fillColor=none;top=0;left=0;bottom=0;right=0;fontStyle=1;overflow=hidden;" vertex="1" parent="OawPCZ3OEu9Kcf-NtxFm-126">
          <mxGeometry width="30" height="30" as="geometry" />
        </mxCell>
        <mxCell id="OawPCZ3OEu9Kcf-NtxFm-128" value="id (int)" style="shape=partialRectangle;connectable=0;fillColor=none;top=0;left=0;bottom=0;right=0;align=left;spacingLeft=6;fontStyle=5;overflow=hidden;" vertex="1" parent="OawPCZ3OEu9Kcf-NtxFm-126">
          <mxGeometry x="30" width="170" height="30" as="geometry" />
        </mxCell>
        <mxCell id="OawPCZ3OEu9Kcf-NtxFm-129" value="" style="shape=partialRectangle;collapsible=0;dropTarget=0;pointerEvents=0;fillColor=none;top=0;left=0;bottom=0;right=0;points=[[0,0.5],[1,0.5]];portConstraint=eastwest;" vertex="1" parent="OawPCZ3OEu9Kcf-NtxFm-125">
          <mxGeometry y="60" width="200" height="30" as="geometry" />
        </mxCell>
        <mxCell id="OawPCZ3OEu9Kcf-NtxFm-130" value="" style="shape=partialRectangle;connectable=0;fillColor=none;top=0;left=0;bottom=0;right=0;editable=1;overflow=hidden;" vertex="1" parent="OawPCZ3OEu9Kcf-NtxFm-129">
          <mxGeometry width="30" height="30" as="geometry" />
        </mxCell>
        <mxCell id="OawPCZ3OEu9Kcf-NtxFm-131" value="admin_name (varchar)" style="shape=partialRectangle;connectable=0;fillColor=none;top=0;left=0;bottom=0;right=0;align=left;spacingLeft=6;overflow=hidden;" vertex="1" parent="OawPCZ3OEu9Kcf-NtxFm-129">
          <mxGeometry x="30" width="170" height="30" as="geometry" />
        </mxCell>
        <mxCell id="OawPCZ3OEu9Kcf-NtxFm-132" value="" style="shape=partialRectangle;collapsible=0;dropTarget=0;pointerEvents=0;fillColor=none;top=0;left=0;bottom=0;right=0;points=[[0,0.5],[1,0.5]];portConstraint=eastwest;" vertex="1" parent="OawPCZ3OEu9Kcf-NtxFm-125">
          <mxGeometry y="90" width="200" height="30" as="geometry" />
        </mxCell>
        <mxCell id="OawPCZ3OEu9Kcf-NtxFm-133" value="" style="shape=partialRectangle;connectable=0;fillColor=none;top=0;left=0;bottom=0;right=0;editable=1;overflow=hidden;" vertex="1" parent="OawPCZ3OEu9Kcf-NtxFm-132">
          <mxGeometry width="30" height="30" as="geometry" />
        </mxCell>
        <mxCell id="OawPCZ3OEu9Kcf-NtxFm-134" value="email (varchar)" style="shape=partialRectangle;connectable=0;fillColor=none;top=0;left=0;bottom=0;right=0;align=left;spacingLeft=6;overflow=hidden;" vertex="1" parent="OawPCZ3OEu9Kcf-NtxFm-132">
          <mxGeometry x="30" width="170" height="30" as="geometry" />
        </mxCell>
        <mxCell id="OawPCZ3OEu9Kcf-NtxFm-135" value="" style="shape=partialRectangle;collapsible=0;dropTarget=0;pointerEvents=0;fillColor=none;top=0;left=0;bottom=0;right=0;points=[[0,0.5],[1,0.5]];portConstraint=eastwest;" vertex="1" parent="OawPCZ3OEu9Kcf-NtxFm-125">
          <mxGeometry y="120" width="200" height="30" as="geometry" />
        </mxCell>
        <mxCell id="OawPCZ3OEu9Kcf-NtxFm-136" value="" style="shape=partialRectangle;connectable=0;fillColor=none;top=0;left=0;bottom=0;right=0;editable=1;overflow=hidden;" vertex="1" parent="OawPCZ3OEu9Kcf-NtxFm-135">
          <mxGeometry width="30" height="30" as="geometry" />
        </mxCell>
        <mxCell id="OawPCZ3OEu9Kcf-NtxFm-137" value="password (varchar)" style="shape=partialRectangle;connectable=0;fillColor=none;top=0;left=0;bottom=0;right=0;align=left;spacingLeft=6;overflow=hidden;" vertex="1" parent="OawPCZ3OEu9Kcf-NtxFm-135">
          <mxGeometry x="30" width="170" height="30" as="geometry" />
        </mxCell>
        <mxCell id="OawPCZ3OEu9Kcf-NtxFm-138" value="image (varchar)" style="shape=partialRectangle;connectable=0;fillColor=none;top=0;left=0;bottom=0;right=0;align=left;spacingLeft=6;overflow=hidden;" vertex="1" parent="1">
          <mxGeometry x="70" y="-610" width="170" height="30" as="geometry" />
        </mxCell>
        <object label="Login" email="varchar" password="varchar" id="OawPCZ3OEu9Kcf-NtxFm-139">
          <mxCell style="shape=table;startSize=30;container=1;collapsible=1;childLayout=tableLayout;fixedRows=1;rowLines=0;fontStyle=1;align=center;resizeLast=1;" vertex="1" parent="1">
            <mxGeometry x="600" y="-560" width="200" height="150" as="geometry" />
          </mxCell>
        </object>
        <mxCell id="OawPCZ3OEu9Kcf-NtxFm-140" value="" style="shape=partialRectangle;collapsible=0;dropTarget=0;pointerEvents=0;fillColor=none;top=0;left=0;bottom=1;right=0;points=[[0,0.5],[1,0.5]];portConstraint=eastwest;" vertex="1" parent="OawPCZ3OEu9Kcf-NtxFm-139">
          <mxGeometry y="30" width="200" height="30" as="geometry" />
        </mxCell>
        <mxCell id="OawPCZ3OEu9Kcf-NtxFm-141" value="PK" style="shape=partialRectangle;connectable=0;fillColor=none;top=0;left=0;bottom=0;right=0;fontStyle=1;overflow=hidden;" vertex="1" parent="OawPCZ3OEu9Kcf-NtxFm-140">
          <mxGeometry width="30" height="30" as="geometry" />
        </mxCell>
        <mxCell id="OawPCZ3OEu9Kcf-NtxFm-142" value="id (int)" style="shape=partialRectangle;connectable=0;fillColor=none;top=0;left=0;bottom=0;right=0;align=left;spacingLeft=6;fontStyle=5;overflow=hidden;" vertex="1" parent="OawPCZ3OEu9Kcf-NtxFm-140">
          <mxGeometry x="30" width="170" height="30" as="geometry" />
        </mxCell>
        <mxCell id="OawPCZ3OEu9Kcf-NtxFm-146" value="" style="shape=partialRectangle;collapsible=0;dropTarget=0;pointerEvents=0;fillColor=none;top=0;left=0;bottom=0;right=0;points=[[0,0.5],[1,0.5]];portConstraint=eastwest;" vertex="1" parent="OawPCZ3OEu9Kcf-NtxFm-139">
          <mxGeometry y="60" width="200" height="30" as="geometry" />
        </mxCell>
        <mxCell id="OawPCZ3OEu9Kcf-NtxFm-147" value="" style="shape=partialRectangle;connectable=0;fillColor=none;top=0;left=0;bottom=0;right=0;editable=1;overflow=hidden;" vertex="1" parent="OawPCZ3OEu9Kcf-NtxFm-146">
          <mxGeometry width="30" height="30" as="geometry" />
        </mxCell>
        <mxCell id="OawPCZ3OEu9Kcf-NtxFm-148" value="email (varchar)" style="shape=partialRectangle;connectable=0;fillColor=none;top=0;left=0;bottom=0;right=0;align=left;spacingLeft=6;overflow=hidden;" vertex="1" parent="OawPCZ3OEu9Kcf-NtxFm-146">
          <mxGeometry x="30" width="170" height="30" as="geometry" />
        </mxCell>
        <mxCell id="OawPCZ3OEu9Kcf-NtxFm-149" value="" style="shape=partialRectangle;collapsible=0;dropTarget=0;pointerEvents=0;fillColor=none;top=0;left=0;bottom=0;right=0;points=[[0,0.5],[1,0.5]];portConstraint=eastwest;" vertex="1" parent="OawPCZ3OEu9Kcf-NtxFm-139">
          <mxGeometry y="90" width="200" height="30" as="geometry" />
        </mxCell>
        <mxCell id="OawPCZ3OEu9Kcf-NtxFm-150" value="" style="shape=partialRectangle;connectable=0;fillColor=none;top=0;left=0;bottom=0;right=0;editable=1;overflow=hidden;" vertex="1" parent="OawPCZ3OEu9Kcf-NtxFm-149">
          <mxGeometry width="30" height="30" as="geometry" />
        </mxCell>
        <mxCell id="OawPCZ3OEu9Kcf-NtxFm-151" value="password (varchar)" style="shape=partialRectangle;connectable=0;fillColor=none;top=0;left=0;bottom=0;right=0;align=left;spacingLeft=6;overflow=hidden;" vertex="1" parent="OawPCZ3OEu9Kcf-NtxFm-149">
          <mxGeometry x="30" width="170" height="30" as="geometry" />
        </mxCell>
        <mxCell id="OawPCZ3OEu9Kcf-NtxFm-143" value="" style="shape=partialRectangle;collapsible=0;dropTarget=0;pointerEvents=0;fillColor=none;top=0;left=0;bottom=0;right=0;points=[[0,0.5],[1,0.5]];portConstraint=eastwest;" vertex="1" parent="OawPCZ3OEu9Kcf-NtxFm-139">
          <mxGeometry y="120" width="200" height="30" as="geometry" />
        </mxCell>
        <mxCell id="OawPCZ3OEu9Kcf-NtxFm-144" value="" style="shape=partialRectangle;connectable=0;fillColor=none;top=0;left=0;bottom=0;right=0;editable=1;overflow=hidden;" vertex="1" parent="OawPCZ3OEu9Kcf-NtxFm-143">
          <mxGeometry width="30" height="30" as="geometry" />
        </mxCell>
        <mxCell id="OawPCZ3OEu9Kcf-NtxFm-145" value="" style="shape=partialRectangle;connectable=0;fillColor=none;top=0;left=0;bottom=0;right=0;align=left;spacingLeft=6;overflow=hidden;" vertex="1" parent="OawPCZ3OEu9Kcf-NtxFm-143">
          <mxGeometry x="30" width="170" height="30" as="geometry" />
        </mxCell>
        <mxCell id="OawPCZ3OEu9Kcf-NtxFm-152" value="" style="edgeStyle=entityRelationEdgeStyle;fontSize=12;html=1;endArrow=ERoneToMany;endFill=0;startArrow=none;startFill=0;" edge="1" parent="1" source="OawPCZ3OEu9Kcf-NtxFm-3" target="OawPCZ3OEu9Kcf-NtxFm-37">
          <mxGeometry width="100" height="100" relative="1" as="geometry">
            <mxPoint x="450" y="-840" as="sourcePoint" />
            <mxPoint x="550" y="-940" as="targetPoint" />
          </mxGeometry>
        </mxCell>
        <mxCell id="OawPCZ3OEu9Kcf-NtxFm-154" value="" style="edgeStyle=entityRelationEdgeStyle;fontSize=12;html=1;endArrow=none;endFill=0;entryX=0;entryY=0.5;entryDx=0;entryDy=0;startArrow=none;startFill=0;" edge="1" parent="1" source="OawPCZ3OEu9Kcf-NtxFm-40" target="OawPCZ3OEu9Kcf-NtxFm-70">
          <mxGeometry width="100" height="100" relative="1" as="geometry">
            <mxPoint x="310" y="-840" as="sourcePoint" />
            <mxPoint x="410" y="-940" as="targetPoint" />
          </mxGeometry>
        </mxCell>
        <mxCell id="OawPCZ3OEu9Kcf-NtxFm-155" value="" style="edgeStyle=entityRelationEdgeStyle;fontSize=12;html=1;endArrow=ERoneToMany;endFill=0;entryX=0;entryY=0.5;entryDx=0;entryDy=0;startArrow=none;startFill=0;" edge="1" parent="1" target="OawPCZ3OEu9Kcf-NtxFm-84">
          <mxGeometry width="100" height="100" relative="1" as="geometry">
            <mxPoint x="520" y="-860" as="sourcePoint" />
            <mxPoint x="320" y="-850" as="targetPoint" />
          </mxGeometry>
        </mxCell>
        <mxCell id="OawPCZ3OEu9Kcf-NtxFm-156" value="" style="edgeStyle=entityRelationEdgeStyle;fontSize=12;html=1;endArrow=ERoneToMany;endFill=0;exitX=1;exitY=0.5;exitDx=0;exitDy=0;" edge="1" parent="1" source="OawPCZ3OEu9Kcf-NtxFm-18">
          <mxGeometry width="100" height="100" relative="1" as="geometry">
            <mxPoint x="310" y="-490" as="sourcePoint" />
            <mxPoint x="600" y="-640" as="targetPoint" />
          </mxGeometry>
        </mxCell>
        <mxCell id="OawPCZ3OEu9Kcf-NtxFm-157" value="admin_id (int)" style="shape=partialRectangle;connectable=0;fillColor=none;top=0;left=0;bottom=0;right=0;align=left;spacingLeft=6;overflow=hidden;" vertex="1" parent="1">
          <mxGeometry x="350" y="-840" width="170" height="30" as="geometry" />
        </mxCell>
        <mxCell id="OawPCZ3OEu9Kcf-NtxFm-158" value="FK" style="shape=partialRectangle;connectable=0;fillColor=none;top=0;left=0;bottom=0;right=0;align=left;spacingLeft=6;overflow=hidden;" vertex="1" parent="1">
          <mxGeometry x="320" y="-840" width="30" height="30" as="geometry" />
        </mxCell>
        <mxCell id="OawPCZ3OEu9Kcf-NtxFm-159" value="" style="edgeStyle=entityRelationEdgeStyle;fontSize=12;html=1;endArrow=ERoneToMany;endFill=0;" edge="1" parent="1">
          <mxGeometry width="100" height="100" relative="1" as="geometry">
            <mxPoint x="240" y="-710" as="sourcePoint" />
            <mxPoint x="320" y="-820" as="targetPoint" />
          </mxGeometry>
        </mxCell>
      </root>
    </mxGraphModel>
  </diagram>
</mxfile>
